<?xml version="1.0" standalone="no"?>
<!DOCTYPE svg PUBLIC "-//W3C//DTD SVG 20010904//EN"
 "http://www.w3.org/TR/2001/REC-SVG-20010904/DTD/svg10.dtd">
<svg version="1.0" xmlns="http://www.w3.org/2000/svg"
 width="1028.000000pt" height="868.000000pt" viewBox="0 0 1028.000000 868.000000"
 preserveAspectRatio="xMidYMid meet">

<g transform="translate(0.000000,868.000000) scale(0.100000,-0.100000)"
fill="#000000" stroke="none">
<path d="M7905 8511 c-12 -5 -26 -16 -33 -24 -11 -13 -3 -21 49 -56 34 -23 65
-41 70 -41 16 0 29 49 20 73 -16 42 -66 64 -106 48z"/>
<path d="M7777 8343 c-4 -3 -7 -18 -7 -33 0 -19 -7 -30 -25 -38 -31 -14 -31
-23 0 -52 l24 -23 -26 -46 c-14 -25 -39 -63 -56 -85 -34 -42 -29 -68 12 -74
50 -8 96 29 104 83 2 11 20 36 40 57 21 21 37 46 37 59 0 13 12 33 28 45 32
27 30 30 -56 78 -72 40 -66 38 -75 29z"/>
<path d="M6897 7963 c-9 -8 4 -33 17 -33 16 0 16 28 0 34 -6 2 -14 2 -17 -1z"/>
<path d="M6945 7950 c-3 -5 -1 -10 5 -10 6 0 8 -4 5 -10 -3 -5 -1 -10 4 -10
13 0 14 27 2 35 -5 3 -12 1 -16 -5z"/>
<path d="M6813 7905 c-3 -9 -3 -18 -1 -21 3 -3 8 4 11 16 6 23 -1 27 -10 5z"/>
<path d="M6910 7835 c-36 -31 -68 -51 -73 -46 -5 5 -15 26 -22 47 -10 29 -14
33 -15 16 0 -18 22 -75 35 -90 5 -5 145 111 145 120 0 11 1 12 -70 -47z"/>
<path d="M6765 7709 c-3 -8 -6 -25 -7 -39 -3 -23 2 -26 67 -42 64 -16 183 -34
143 -22 -21 6 -21 9 -8 34 9 16 6 21 -15 26 -14 3 -25 10 -25 14 0 5 -24 13
-52 20 -29 6 -63 13 -75 16 -14 4 -25 1 -28 -7z"/>
<path d="M4688 7673 c7 -3 16 -2 19 1 4 3 -2 6 -13 5 -11 0 -14 -3 -6 -6z"/>
<path d="M6990 7655 c-16 -19 -7 -30 14 -18 9 5 12 13 7 21 -6 10 -11 10 -21
-3z"/>
<path d="M4713 7645 c-22 -9 -33 -21 -33 -35 0 -23 -18 -27 -26 -5 -8 20 -20
19 -83 -10 l-54 -25 6 -41 c8 -64 21 -72 97 -65 132 13 192 40 177 79 -5 14
-11 14 -53 1 -61 -18 -61 -18 -67 8 -7 26 2 34 54 42 43 7 50 14 42 44 -6 25
-16 27 -60 7z"/>
<path d="M7970 7641 c0 -14 -8 -21 -27 -23 -57 -6 -28 -97 44 -143 39 -24 41
-35 8 -35 -15 0 -42 15 -65 37 -31 27 -44 33 -52 25 -17 -17 46 -80 96 -94 37
-11 40 -11 63 16 l24 28 -28 18 c-36 22 -83 77 -83 97 0 14 3 13 21 -3 12 -10
27 -31 35 -46 15 -29 44 -38 44 -14 0 7 -10 29 -23 47 -13 19 -22 40 -20 46 2
6 -1 14 -6 18 -6 3 -11 15 -11 26 0 10 -4 19 -10 19 -5 0 -10 -9 -10 -19z"/>
<path d="M4590 7640 c-8 -5 -10 -10 -5 -10 6 0 17 5 25 10 8 5 11 10 5 10 -5
0 -17 -5 -25 -10z"/>
<path d="M8010 7634 c0 -4 13 -21 30 -40 16 -18 32 -49 36 -69 3 -19 10 -32
15 -29 27 16 -14 113 -55 132 -14 6 -26 9 -26 6z"/>
<path d="M4531 7611 c-19 -10 -30 -21 -25 -24 5 -3 23 6 39 19 36 28 32 30
-14 5z"/>
<path d="M4379 7546 c-79 -34 -125 -63 -150 -92 -11 -14 -11 -18 1 -28 8 -6
24 -28 35 -49 28 -54 81 -115 117 -133 32 -16 32 -9 0 28 -12 15 -12 24 -1 61
10 36 16 44 33 40 20 -3 20 -3 -1 8 -27 14 -46 67 -38 102 7 25 41 61 80 84
38 23 0 13 -76 -21z"/>
<path d="M4491 7532 c-2 -25 28 -81 47 -91 12 -6 49 -10 84 -9 l63 1 -67 6
c-74 7 -95 20 -115 74 -6 18 -12 26 -12 19z"/>
<path d="M4698 7443 c7 -3 16 -2 19 1 4 3 -2 6 -13 5 -11 0 -14 -3 -6 -6z"/>
<path d="M4772 7425 c-12 -26 -16 -27 -57 -21 -48 6 -63 -9 -20 -20 49 -12
105 22 93 58 -2 6 -9 -2 -16 -17z"/>
<path d="M7217 7294 c-12 -12 -8 -63 8 -102 41 -97 122 -183 160 -168 19 7 19
30 0 46 -27 23 -86 121 -104 173 -12 36 -24 53 -37 55 -11 2 -23 0 -27 -4z"/>
<path d="M4505 7230 c3 -5 20 -10 36 -10 18 0 28 4 24 10 -3 6 -20 10 -36 10
-18 0 -28 -4 -24 -10z"/>
<path d="M6965 7211 c-6 -29 11 -118 25 -126 4 -3 12 1 18 8 10 13 -17 147
-30 147 -3 0 -9 -13 -13 -29z"/>
<path d="M6670 7059 c-19 -44 -7 -187 23 -282 26 -82 68 -147 93 -147 9 0 14
3 12 8 -2 4 -15 30 -30 59 -44 83 -71 196 -72 300 -1 51 -4 93 -7 93 -4 0 -12
-14 -19 -31z"/>
<path d="M6504 7018 c-33 -65 1 -256 69 -380 28 -51 34 -57 57 -51 14 3 26 7
28 8 2 2 -10 27 -26 56 -47 84 -73 182 -79 297 -6 111 -19 129 -49 70z"/>
<path d="M6930 7011 c-22 -81 22 -243 67 -249 39 -6 46 29 19 90 -24 55 -49
155 -44 179 2 7 -5 14 -14 17 -12 2 -20 -7 -28 -37z"/>
<path d="M8253 6975 c-20 -19 -42 -35 -48 -35 -5 0 -28 12 -50 25 -52 32 -67
31 -108 -5 -41 -35 -64 -37 -117 -10 -44 22 -50 24 -50 11 0 -11 93 -51 119
-51 11 0 36 14 54 30 40 35 65 38 100 10 36 -29 72 -25 117 13 22 17 40 35 40
40 0 16 -22 5 -57 -28z"/>
<path d="M6330 6976 c-196 -82 -269 -153 -270 -262 0 -81 78 -148 189 -161 42
-5 54 -10 61 -28 l9 -22 81 23 c45 13 90 24 99 24 29 0 30 10 4 36 -57 57
-103 205 -103 331 0 46 -3 83 -7 83 -5 -1 -33 -11 -63 -24z"/>
<path d="M7170 6853 c0 -11 7 -24 16 -27 27 -10 30 3 6 27 l-22 21 0 -21z"/>
<path d="M6850 6820 c0 -16 51 -122 56 -117 7 6 -35 115 -47 122 -5 4 -9 1 -9
-5z"/>
<path d="M4410 6799 c-25 -11 -67 -25 -95 -31 -122 -26 -160 -142 -119 -359
22 -121 84 -377 159 -664 35 -137 65 -260 65 -273 0 -22 3 -23 48 -17 112 16
546 121 766 186 l69 21 -6 60 c-3 33 -10 65 -16 71 -7 7 -57 1 -162 -18 -171
-30 -215 -29 -295 10 -46 22 -136 106 -174 161 -11 15 -30 23 -65 26 -59 7
-95 41 -95 91 0 28 -94 280 -151 405 -10 23 -19 50 -19 58 0 24 23 11 31 -17
27 -93 45 -142 85 -237 26 -59 50 -118 55 -131 l9 -23 44 40 c24 22 53 45 65
51 20 11 20 14 7 39 -8 15 -24 48 -35 75 -12 26 -30 66 -41 90 -54 119 -86
265 -75 355 3 28 2 52 -2 51 -4 0 -28 -9 -53 -20z"/>
<path d="M7056 6773 c-9 -9 -7 -33 3 -33 12 0 22 28 12 34 -5 3 -11 3 -15 -1z"/>
<path d="M7038 6595 c15 -24 33 -45 40 -45 18 0 15 14 -8 28 -11 7 -20 23 -20
37 0 18 -5 25 -20 25 -18 0 -18 -3 8 -45z"/>
<path d="M6823 6591 c-12 -19 -96 -51 -132 -51 -14 0 -21 -6 -21 -19 0 -18 5
-19 54 -14 51 5 54 4 79 -28 13 -19 51 -77 82 -129 73 -121 112 -170 135 -170
10 0 28 -16 40 -35 36 -59 89 -81 130 -55 18 12 20 9 -138 268 -61 100 -114
191 -117 202 -4 11 -15 20 -26 20 -11 0 -32 6 -48 14 -24 13 -28 13 -38 -3z"/>
<path d="M7086 6507 c-10 -37 -7 -46 24 -74 17 -14 30 -35 30 -45 0 -19 33
-58 50 -58 16 0 12 32 -7 52 -14 16 -15 22 -5 39 12 18 11 19 -7 10 -25 -14
-31 -14 -31 0 0 7 -7 17 -16 24 -9 6 -16 24 -16 38 0 35 -14 44 -22 14z"/>
<path d="M5975 6400 c-8 -13 5 -13 25 0 13 8 13 10 -2 10 -9 0 -20 -4 -23 -10z"/>
<path d="M6465 6310 c-28 -7 -28 -8 12 -9 23 0 45 4 48 9 7 11 -16 11 -60 0z"/>
<path d="M6605 6200 c-4 -6 7 -10 25 -10 18 0 29 4 25 10 -3 6 -15 10 -25 10
-10 0 -22 -4 -25 -10z"/>
<path d="M6489 6176 c-25 -7 -54 -18 -65 -24 -18 -11 -17 -11 7 -12 33 0 126
28 134 40 8 13 -19 11 -76 -4z"/>
<path d="M6688 6132 c-3 -22 -1 -29 9 -25 15 6 17 22 4 42 -6 9 -10 4 -13 -17z"/>
<path d="M6735 6140 c10 -11 20 -20 23 -20 3 0 -3 9 -13 20 -10 11 -20 20 -23
20 -3 0 3 -9 13 -20z"/>
<path d="M4643 6105 c-83 -56 -104 -98 -57 -116 33 -12 39 -7 24 21 -17 32 -4
56 51 91 27 18 49 34 49 36 0 9 -20 0 -67 -32z"/>
<path d="M6150 5879 c-65 -6 -174 -42 -186 -60 -3 -5 -8 -7 -12 -5 -4 2 -12
-2 -18 -8 -9 -10 13 -15 101 -24 170 -18 366 -75 463 -134 18 -11 36 -18 39
-14 5 5 -9 41 -40 105 -7 13 -31 43 -55 66 -65 65 -157 88 -292 74z"/>
<path d="M5715 5744 c-11 -1 -66 -8 -123 -14 -118 -14 -102 -3 -238 -167 -68
-81 -93 -105 -122 -113 -139 -39 -538 -135 -642 -154 l-125 -23 0 -114 c1 -88
5 -125 20 -164 23 -58 70 -140 107 -184 15 -16 41 -56 59 -88 18 -32 39 -64
47 -72 22 -23 32 -59 23 -83 -5 -13 -36 -57 -70 -98 -203 -252 -267 -542 -180
-826 104 -343 435 -608 818 -654 251 -30 475 29 696 186 61 42 197 173 222
211 10 15 31 43 48 61 27 30 47 63 109 176 l22 40 -39 90 c-27 64 -39 106 -40
145 l-2 56 35 1 c31 0 35 3 34 25 -1 13 -16 62 -32 109 -17 47 -43 130 -57
185 -76 289 -94 366 -90 387 7 34 42 55 120 73 83 19 377 107 372 111 -2 2
-96 -20 -210 -48 -113 -29 -209 -50 -212 -46 -3 3 -7 15 -8 27 -1 11 -5 21 -9
21 -4 0 -7 3 -6 8 5 18 -49 101 -97 148 -61 61 -117 89 -200 100 -11 2 -38 6
-60 9 -79 13 -373 6 -445 -10 -34 -7 -67 -13 -120 -20 -25 -3 -74 -13 -110
-21 -36 -9 -72 -17 -80 -19 -8 -2 -42 -11 -75 -20 -33 -10 -74 -18 -92 -19
-17 -1 -29 -4 -26 -8 2 -5 -3 -8 -11 -8 -9 0 -30 -8 -48 -18 -43 -24 -92 -34
-105 -21 -7 7 -13 7 -17 1 -7 -12 -76 17 -77 33 -1 19 -7 44 -19 79 -6 19 -10
47 -8 63 5 51 69 99 112 84 10 -4 42 -1 70 6 28 8 62 15 76 18 69 10 110 28
110 48 0 9 3 9 9 -1 6 -10 10 -10 21 3 7 8 19 15 26 15 8 0 14 5 14 10 0 6 5
10 11 10 6 0 17 6 24 13 34 30 43 35 49 30 3 -4 16 3 29 15 12 11 36 24 52 28
17 4 35 11 42 16 7 5 16 7 22 4 5 -4 16 1 24 9 9 8 22 15 31 15 8 0 18 5 21
10 3 6 14 10 23 10 9 0 28 6 42 13 14 7 52 24 85 37 33 13 80 36 105 51 25 15
56 30 69 34 14 4 29 12 35 17 10 8 41 29 95 63 40 25 59 42 75 67 l17 27 -38
10 c-34 10 -137 13 -188 5z m-180 -1443 c3 -5 19 -12 35 -16 17 -4 30 -10 30
-14 0 -5 16 -11 36 -14 42 -7 94 -29 94 -39 0 -5 6 -8 13 -8 36 0 75 -121 43
-133 -17 -7 -68 5 -121 28 -35 15 -51 16 -141 6 -78 -9 -108 -9 -128 0 -14 7
-26 16 -26 21 0 5 -6 6 -12 2 -7 -4 -10 -4 -6 1 4 4 3 14 -2 21 -33 38 -6 109
53 138 35 17 122 22 132 7z"/>
<path d="M7075 5290 c-49 -16 -109 -34 -133 -40 -23 -6 -40 -15 -37 -20 5 -7
260 71 273 85 9 9 -10 4 -103 -25z"/>
<path d="M7620 4881 c0 -5 5 -13 10 -16 6 -3 10 -2 10 4 0 5 -4 13 -10 16 -5
3 -10 2 -10 -4z"/>
<path d="M7297 4480 c-16 -19 -16 -20 14 -20 23 0 30 4 27 17 -5 24 -21 26
-41 3z"/>
</g>
</svg>
